<svg width="77" height="20" viewBox="0 0 77 20" fill="none" xmlns="http://www.w3.org/2000/svg">
<path opacity="0.6" d="M56.9019 16.7454H49.827L48.7516 19.9999H42.9219L50.1949 0.048584H56.5906L63.8354 19.9999H57.9773L56.9019 16.7454ZM55.5152 12.5005L53.3645 6.04812L51.242 12.5005H55.5152Z" fill="#AF9DC4"/>
<path opacity="0.6" d="M21.3342 19.9999C19.5129 19.9999 17.8388 19.5768 16.3119 18.7305C14.7849 17.8659 13.5707 16.6793 12.6693 15.1707C11.7862 13.6438 11.3447 11.9237 11.3447 10.0104C11.3447 8.09717 11.7862 6.38627 12.6693 4.87774C13.5707 3.3508 14.7849 2.16421 16.3119 1.31796C17.8388 0.47171 19.5129 0.048584 21.3342 0.048584C23.1739 0.048584 24.848 0.47171 26.3565 1.31796C27.8834 2.16421 29.0884 3.3508 29.9715 4.87774C30.8545 6.38627 31.296 8.09717 31.296 10.0104C31.296 11.9237 30.8545 13.6438 29.9715 15.1707C29.0884 16.6793 27.8834 17.8659 26.3565 18.7305C24.8296 19.5768 23.1555 19.9999 21.3342 19.9999ZM21.3342 14.9776C22.7139 14.9776 23.7993 14.5268 24.5904 13.6254C25.3999 12.724 25.8046 11.519 25.8046 10.0104C25.8046 8.46511 25.3999 7.25092 24.5904 6.36788C23.7993 5.46643 22.7139 5.01571 21.3342 5.01571C19.936 5.01571 18.8414 5.46643 18.0503 6.36788C17.2593 7.25092 16.8638 8.46511 16.8638 10.0104C16.8638 11.5374 17.2593 12.7516 18.0503 13.653C18.8414 14.536 19.936 14.9776 21.3342 14.9776Z" fill="#AF9DC4"/>
<path opacity="0.6" d="M46.7548 20H41.1945L33.7903 8.8227V20H28.23V0H33.7903L41.1945 11.3191V0H46.7548V20Z" fill="#AF9DC4"/>
<path opacity="0.6" d="M7.91981 19.9999C5.65701 19.9999 3.79893 19.4664 2.34559 18.3994C0.892244 17.314 0.110381 15.7686 0 13.7634H5.76739C5.82258 14.4441 6.02494 14.9408 6.37448 15.2535C6.72402 15.5663 7.17474 15.7226 7.72664 15.7226C8.22336 15.7226 8.62809 15.6031 8.94083 15.3639C9.27197 15.1063 9.43754 14.7568 9.43754 14.3153C9.43754 13.745 9.17079 13.3035 8.63729 12.9907C8.10378 12.678 7.23913 12.3284 6.04334 11.9421C4.77396 11.519 3.74374 11.1142 2.95268 10.7279C2.18002 10.3232 1.49934 9.74368 0.91064 8.98941C0.34034 8.21675 0.0551903 7.21413 0.0551903 5.98154C0.0551903 4.73056 0.367936 3.66355 0.993426 2.7805C1.61892 1.87906 2.48356 1.19838 3.58737 0.738462C4.69118 0.278543 5.94216 0.048584 7.34031 0.048584C9.60312 0.048584 11.406 0.58209 12.749 1.6491C14.1103 2.69772 14.837 4.17866 14.929 6.09192H9.05121C9.03282 5.50323 8.84885 5.0617 8.49931 4.76736C8.16817 4.47301 7.73584 4.32583 7.20234 4.32583C6.79761 4.32583 6.46647 4.44541 6.20891 4.68457C5.95136 4.92373 5.82258 5.26407 5.82258 5.70559C5.82258 6.07353 5.96055 6.39547 6.23651 6.67142C6.53085 6.92898 6.88959 7.15894 7.31272 7.3613C7.73584 7.54527 8.36133 7.78443 9.18919 8.07877C10.4218 8.5019 11.4336 8.92503 12.2247 9.34815C13.0341 9.75288 13.724 10.3324 14.2943 11.0866C14.883 11.8225 15.1773 12.7608 15.1773 13.9014C15.1773 15.0603 14.883 16.0998 14.2943 17.0196C13.724 17.9394 12.8869 18.6661 11.7831 19.1996C10.6977 19.7331 9.40995 19.9999 7.91981 19.9999Z" fill="#AF9DC4"/>
<path opacity="0.6" d="M70.1059 19.9999L66.144 12.642H65.5497V19.9999H60.0029V0.048584H68.7475C70.3512 0.048584 71.7096 0.331581 72.8227 0.897576C73.9358 1.4447 74.7754 2.2088 75.3414 3.18985C75.9074 4.15204 76.1904 5.23687 76.1904 6.44432C76.1904 7.80271 75.813 9.00073 75.0584 10.0384C74.3226 11.0572 73.2378 11.7835 71.8039 12.2175L76.3036 19.9999H70.1059ZM65.5497 8.8498H68.2947C69.0494 8.8498 69.6154 8.67056 69.9927 8.3121C70.3701 7.95364 70.5587 7.43481 70.5587 6.75562C70.5587 6.11416 70.3606 5.61419 69.9644 5.25573C69.5871 4.8784 69.0305 4.68974 68.2947 4.68974H65.5497V8.8498Z" fill="#AF9DC4"/>
</svg>
