<svg width="77" height="20" fill="none" xmlns="http://www.w3.org/2000/svg"><path opacity=".6" d="M56.902 16.745h-7.075L48.752 20h-5.83L50.195.049h6.396l7.244 19.95h-5.858l-1.075-3.254ZM55.515 12.5l-2.15-6.452-2.123 6.453h4.273ZM21.334 20c-1.821 0-3.495-.423-5.022-1.27a9.8 9.8 0 0 1-3.643-3.56c-.883-1.526-1.324-3.246-1.324-5.16 0-1.913.441-3.624 1.324-5.132a9.53 9.53 0 0 1 3.643-3.56c1.527-.846 3.2-1.27 5.022-1.27 1.84 0 3.514.424 5.023 1.27a9.335 9.335 0 0 1 3.614 3.56c.884 1.508 1.325 3.22 1.325 5.132 0 1.914-.441 3.634-1.325 5.16a9.593 9.593 0 0 1-3.614 3.56c-1.527.847-3.201 1.27-5.023 1.27Zm0-5.022c1.38 0 2.465-.451 3.256-1.353.81-.901 1.215-2.106 1.215-3.615 0-1.545-.405-2.76-1.215-3.642-.79-.902-1.876-1.352-3.256-1.352-1.398 0-2.493.45-3.284 1.352-.79.883-1.186 2.097-1.186 3.642 0 1.527.395 2.742 1.186 3.643.791.883 1.886 1.325 3.284 1.325Z" fill="#AF9DC4"/><path opacity=".6" d="M46.755 20h-5.56L33.79 8.823V20h-5.56V0h5.56l7.404 11.32V0h5.56v20ZM7.92 20c-2.263 0-4.121-.534-5.574-1.6C.892 17.313.11 15.768 0 13.762h5.767c.056.681.258 1.178.607 1.49.35.313.8.47 1.353.47.496 0 .901-.12 1.214-.36.331-.257.497-.606.497-1.048 0-.57-.267-1.011-.8-1.324-.534-.313-1.399-.663-2.595-1.049-1.269-.423-2.3-.828-3.09-1.214-.773-.405-1.454-.984-2.042-1.739C.34 8.217.055 7.214.055 5.982c0-1.251.313-2.318.938-3.202.626-.9 1.49-1.582 2.594-2.042C4.691.278 5.942.048 7.34.048c2.263 0 4.066.534 5.409 1.601 1.361 1.049 2.088 2.53 2.18 4.443H9.051c-.018-.589-.202-1.03-.552-1.325-.33-.294-.763-.441-1.297-.441-.404 0-.736.12-.993.359-.258.239-.386.58-.386 1.02 0 .369.138.69.414.966.294.258.653.488 1.076.69.423.184 1.048.423 1.876.718 1.233.423 2.245.846 3.036 1.27.81.404 1.499.983 2.07 1.738.588.736.882 1.674.882 2.814 0 1.16-.294 2.199-.883 3.119-.57.92-1.407 1.646-2.51 2.18-1.086.533-2.374.8-3.864.8ZM70.106 20l-3.962-7.358h-.594V20h-5.547V.049h8.745c1.603 0 2.962.283 4.075.849 1.113.547 1.952 1.31 2.518 2.292.566.962.85 2.047.85 3.254 0 1.359-.378 2.557-1.133 3.594-.735 1.02-1.82 1.745-3.254 2.18l4.5 7.782h-6.198ZM65.55 8.85h2.745c.754 0 1.32-.18 1.698-.538.377-.358.566-.877.566-1.556 0-.642-.198-1.142-.595-1.5-.377-.378-.933-.566-1.67-.566H65.55v4.16Z" fill="#AF9DC4"/></svg>