<svg width="117" height="24" fill="none" xmlns="http://www.w3.org/2000/svg"><path d="M35.408 19.2h-1.163c-.18 0-.27-.083-.27-.247v-4.816c0-.179.09-.268.27-.268h1.308c.166 0 .249.09.249.268v.432c0 .26.16.61.477 1.05.319.425.637.775.955 1.05.319.273.74.514 1.266.72.54.192 1.121.288 1.744.288 1.066 0 1.896-.22 2.49-.66.61-.438.914-1.049.914-1.83 0-.454-.173-.838-.519-1.153-.332-.33-.768-.59-1.307-.782a19.12 19.12 0 0 0-1.806-.536c-.65-.164-1.308-.35-1.972-.555-.65-.22-1.246-.474-1.785-.762a3.8 3.8 0 0 1-1.329-1.235c-.332-.535-.498-1.159-.498-1.872 0-1.153.436-2.107 1.308-2.861.885-.755 2.069-1.132 3.55-1.132 1.867 0 3.237.542 4.109 1.626l-.041-1.276c0-.165.09-.247.27-.247h1.162c.166 0 .249.082.249.247v4.486c0 .165-.083.247-.25.247h-1.307c-.166 0-.249-.082-.249-.247V8.56c0-.562-.318-1.132-.955-1.708-.636-.576-1.57-.865-2.802-.865-.913 0-1.654.22-2.221.66-.554.424-.83.973-.83 1.646 0 .48.173.891.519 1.234.345.343.795.618 1.349.824.553.206 1.162.398 1.826.576.665.165 1.329.35 1.993.556.664.205 1.273.452 1.827.74a3.64 3.64 0 0 1 1.349 1.194c.346.494.519 1.084.519 1.77 0 1.208-.436 2.202-1.308 2.985-.872.782-2.172 1.173-3.902 1.173-1.273 0-2.325-.254-3.155-.762-.83-.508-1.432-1.056-1.806-1.646l.02 2.017c0 .164-.082.247-.248.247ZM63.48 19.076h-4.692c-.166 0-.249-.082-.249-.247v-1.05c0-.164.083-.247.25-.247h1.452l-1.349-3.56h-5.791l-1.35 3.56h1.454c.166 0 .249.083.249.247v1.05c0 .165-.083.247-.25.247h-4.67c-.166 0-.249-.082-.249-.247v-1.05c0-.164.083-.247.25-.247h1.39l4.463-11.69h-1.121c-.18 0-.27-.082-.27-.247v-1.05c0-.164.09-.246.27-.246h2.823c.332 0 .581.068.747.206.18.137.332.363.457.679l4.774 12.348h1.411c.166 0 .25.083.25.247v1.05c0 .165-.084.247-.25.247Zm-5.148-6.524-2.304-6.113h-.063l-2.324 6.113h4.69ZM73.137 19.076H68.3c-.18 0-.27-.09-.27-.268V17.8c0-.178.09-.268.27-.268h1.578V5.842h-3.923v2.182c0 .192-.097.288-.29.288h-1.163c-.194 0-.29-.096-.29-.288V4.566c0-.178.096-.267.29-.267h12.516c.194 0 .29.089.29.267v3.458c0 .192-.096.288-.29.288h-1.183c-.18 0-.27-.096-.27-.288V5.842h-3.881v11.69h1.453c.193 0 .29.09.29.268v1.008c0 .179-.097.268-.29.268ZM93.436 11.75c0 2.25-.685 4.081-2.055 5.494-1.356 1.4-3.072 2.1-5.148 2.1-2.062 0-3.785-.707-5.169-2.12-1.383-1.427-2.075-3.259-2.075-5.495 0-2.25.712-4.048 2.138-5.393C82.552 4.978 84.254 4.3 86.233 4.3s3.674.679 5.085 2.037c1.412 1.345 2.118 3.15 2.118 5.413Zm-10.919 4.362c1.066 1.043 2.305 1.565 3.716 1.565s2.643-.522 3.695-1.565c1.052-1.056 1.577-2.497 1.577-4.322 0-1.838-.54-3.272-1.619-4.301-1.065-1.043-2.283-1.564-3.653-1.564s-2.595.521-3.674 1.564c-1.08 1.029-1.619 2.463-1.619 4.301 0 1.825.526 3.266 1.578 4.322ZM108.114 19.076h-1.805c-.499 0-.914-.33-1.246-.988l-1.951-3.93c-.166-.344-.346-.598-.54-.762-.18-.165-.436-.254-.768-.268h-2.636v4.404h1.868c.166 0 .249.083.249.247v1.05c0 .165-.083.247-.249.247h-5.251c-.18 0-.27-.082-.27-.247v-1.05c0-.164.09-.247.27-.247h1.577V5.842h-1.577c-.18 0-.27-.082-.27-.247v-1.05c0-.164.09-.246.27-.246h6.393c1.481 0 2.685.39 3.612 1.173.927.768 1.39 1.86 1.39 3.272 0 2.155-1.017 3.5-3.051 4.034.263.206.588.666.976 1.38l1.743 3.374h1.266c.167 0 .25.083.25.247v1.05c0 .165-.083.247-.25.247Zm-8.946-7.41h2.657c2.353 0 3.529-.953 3.529-2.86 0-1.976-1.176-2.964-3.529-2.964h-2.657v5.825ZM116.094 19.076h-4.982c-.18 0-.27-.082-.27-.247v-1.05c0-.164.09-.247.27-.247h1.577V5.842h-1.577c-.18 0-.27-.082-.27-.247v-1.05c0-.164.09-.246.27-.246h4.982c.179 0 .269.082.269.247v1.05c0 .164-.09.246-.269.246h-1.599v11.69h1.599c.179 0 .269.083.269.247v1.05c0 .165-.09.247-.269.247Z" fill="#AF9DC4"/><path fill-rule="evenodd" clip-rule="evenodd" d="M15.375 12.735a2.716 2.716 0 0 1-2.713 2.719 2.716 2.716 0 0 1-2.713-2.72 2.716 2.716 0 0 1 2.713-2.718 2.716 2.716 0 0 1 2.713 2.719Zm-1.364 0a1.35 1.35 0 0 1-1.349 1.352 1.35 1.35 0 0 1-1.35-1.352 1.35 1.35 0 0 1 1.35-1.352c.745 0 1.35.605 1.35 1.352Z" fill="#AF9DC4"/><path fill-rule="evenodd" clip-rule="evenodd" d="M16.5 8.979a2.947 2.947 0 0 1-1.46-1.063 2.943 2.943 0 0 0-4.757 0c-.364.498-.874.87-1.46 1.063-1.895.623-2.637 2.913-1.47 4.534.361.5.556 1.102.558 1.72.006 1.998 1.95 3.414 3.849 2.802a2.941 2.941 0 0 1 1.804 0c1.899.612 3.843-.804 3.849-2.803a2.957 2.957 0 0 1 .558-1.72c1.167-1.62.424-3.91-1.47-4.533Zm-5.116-.256a1.581 1.581 0 0 1 2.556 0 4.31 4.31 0 0 0 2.135 1.554 1.588 1.588 0 0 1 .79 2.436 4.325 4.325 0 0 0-.816 2.515 1.584 1.584 0 0 1-2.067 1.506 4.3 4.3 0 0 0-2.64 0 1.584 1.584 0 0 1-2.067-1.506 4.325 4.325 0 0 0-.816-2.515 1.588 1.588 0 0 1 .79-2.436 4.31 4.31 0 0 0 2.135-1.554Z" fill="#AF9DC4"/><path fill-rule="evenodd" clip-rule="evenodd" d="M20.916 4.962c3.84 1.248 5.341 5.894 2.959 9.16l-.128.176a5.952 5.952 0 0 0-1.142 3.488l-.001.285c-.012 4.013-3.91 6.861-7.727 5.646l-.42-.134a5.918 5.918 0 0 0-3.59 0l-.42.134c-3.818 1.215-7.715-1.633-7.727-5.646v-.285a5.952 5.952 0 0 0-1.143-3.488l-.128-.176C-.933 10.856.567 6.21 4.408 4.962l.298-.097a5.931 5.931 0 0 0 2.938-2.117l.25-.34c2.372-3.21 7.164-3.21 9.535 0l.251.34a5.931 5.931 0 0 0 2.938 2.117l.298.097ZM7.769 4.634c.356-.323.682-.682.97-1.073l.252-.34c1.826-2.472 5.516-2.472 7.342 0l.251.34c.289.39.614.75.97 1.073a4.595 4.595 0 0 0-3.47-.253 4.635 4.635 0 0 1-2.844 0 4.595 4.595 0 0 0-3.471.253Zm-1.274.925c-.432.247-.89.451-1.368.606l-.298.097C1.87 7.223.716 10.8 2.55 13.316l.128.175c.307.421.566.871.775 1.343a4.62 4.62 0 0 1 .841-3.325c.569-.79.876-1.737.88-2.71a4.619 4.619 0 0 1 1.32-3.24ZM3.946 16.395c.09.455.136.919.137 1.387v.285c.01 3.09 3.011 5.283 5.95 4.347l.42-.133c.3-.096.603-.171.91-.227a4.602 4.602 0 0 1-2.45-1.723 4.646 4.646 0 0 0-2.301-1.675 4.606 4.606 0 0 1-2.666-2.26Zm10.015 5.66c.307.055.61.13.91.226l.42.133c2.939.936 5.94-1.257 5.949-4.348v-.284c.002-.468.048-.931.137-1.386a4.607 4.607 0 0 1-2.665 2.26 4.646 4.646 0 0 0-2.3 1.675 4.602 4.602 0 0 1-2.45 1.724Zm7.91-7.223c.209-.47.468-.92.775-1.34l.128-.176c1.834-2.516.679-6.093-2.279-7.054l-.298-.097a7.286 7.286 0 0 1-1.367-.605 4.62 4.62 0 0 1 1.32 3.238c.004.974.311 1.921.88 2.71a4.62 4.62 0 0 1 .84 3.324Zm-6.56 4.692a3.277 3.277 0 0 1-5.297 0 6.01 6.01 0 0 0-2.977-2.167C4.927 16.663 4.1 14.113 5.4 12.31a6.03 6.03 0 0 0 1.137-3.507c.007-2.225 2.172-3.801 4.286-3.12a5.997 5.997 0 0 0 3.679 0c2.114-.681 4.278.895 4.285 3.12a6.03 6.03 0 0 0 1.137 3.507c1.3 1.804.473 4.354-1.637 5.048a6.01 6.01 0 0 0-2.976 2.167Z" fill="#AF9DC4"/></svg>