<svg width="117" height="24" viewBox="0 0 117 24" fill="none" xmlns="http://www.w3.org/2000/svg">
<path d="M35.4076 19.1995H34.2452C34.0653 19.1995 33.9753 19.1172 33.9753 18.9526V14.1366C33.9753 13.9582 34.0653 13.869 34.2452 13.869H35.5529C35.7189 13.869 35.802 13.9582 35.802 14.1366V14.5688C35.802 14.8295 35.9611 15.1794 36.2794 15.6184C36.5976 16.0438 36.9159 16.3936 37.2342 16.6681C37.5525 16.9425 37.9745 17.1826 38.5004 17.3884C39.0401 17.5805 39.6212 17.6765 40.244 17.6765C41.3095 17.6765 42.1398 17.457 42.7348 17.0179C43.3437 16.5789 43.6481 15.9683 43.6481 15.1862C43.6481 14.7334 43.4751 14.3493 43.1292 14.0337C42.7971 13.7044 42.3612 13.4437 41.8215 13.2516C41.2818 13.0595 40.6799 12.8811 40.0156 12.7165C39.3652 12.5518 38.7079 12.3666 38.0437 12.1608C37.3933 11.9413 36.7983 11.6874 36.2586 11.3993C35.7189 11.0974 35.2761 10.6858 34.9302 10.1644C34.5981 9.62933 34.432 9.00504 34.432 8.29156C34.432 7.13902 34.8679 6.18543 35.7397 5.43079C36.6253 4.67615 37.8085 4.29883 39.2891 4.29883C41.1573 4.29883 42.5272 4.8408 43.399 5.92473L43.3575 4.64871C43.3575 4.48406 43.4475 4.40173 43.6273 4.40173H44.7897C44.9558 4.40173 45.0388 4.48406 45.0388 4.64871V9.13538C45.0388 9.30003 44.9558 9.38236 44.7897 9.38236H43.482C43.316 9.38236 43.233 9.30003 43.233 9.13538V8.55911C43.233 7.99656 42.9147 7.42715 42.2781 6.85088C41.6416 6.27461 40.7075 5.98648 39.4759 5.98648C38.5626 5.98648 37.8223 6.20601 37.2549 6.64507C36.7014 7.07041 36.4247 7.61924 36.4247 8.29156C36.4247 8.77178 36.5976 9.18341 36.9436 9.52642C37.2895 9.86944 37.7393 10.1439 38.2928 10.3497C38.8463 10.5555 39.4552 10.7476 40.1194 10.9259C40.7836 11.0906 41.4479 11.2758 42.1121 11.4816C42.7763 11.6874 43.3852 11.9344 43.9387 12.2225C44.4922 12.5107 44.942 12.9086 45.2879 13.4163C45.6339 13.9102 45.8068 14.5002 45.8068 15.1862C45.8068 16.3936 45.3709 17.3884 44.4991 18.1705C43.6273 18.9526 42.3266 19.3436 40.5968 19.3436C39.3237 19.3436 38.272 19.0898 37.4418 18.5821C36.6115 18.0744 36.0095 17.5256 35.6359 16.9356L35.6567 18.9526C35.6567 19.1172 35.5736 19.1995 35.4076 19.1995Z" fill="#AF9DC4"/>
<path d="M63.4794 19.0761H58.7883C58.6223 19.0761 58.5392 18.9937 58.5392 18.8291V17.7794C58.5392 17.6148 58.6223 17.5325 58.7883 17.5325H60.2413L58.8921 13.9719H53.1009L51.7517 17.5325H53.2047C53.3707 17.5325 53.4538 17.6148 53.4538 17.7794V18.8291C53.4538 18.9937 53.3707 19.0761 53.2047 19.0761H48.5344C48.3683 19.0761 48.2853 18.9937 48.2853 18.8291V17.7794C48.2853 17.6148 48.3683 17.5325 48.5344 17.5325H49.9251L54.3878 5.84241H53.267C53.0871 5.84241 52.9971 5.76009 52.9971 5.59544V4.5458C52.9971 4.38115 53.0871 4.29883 53.267 4.29883H56.0899C56.422 4.29883 56.6711 4.36743 56.8372 4.50464C57.0171 4.64185 57.1693 4.86824 57.2938 5.18382L62.0679 17.5325H63.4794C63.6455 17.5325 63.7285 17.6148 63.7285 17.7794V18.8291C63.7285 18.9937 63.6455 19.0761 63.4794 19.0761ZM58.3317 12.5518L56.0276 6.43926H55.9654L53.6406 12.5518H58.3317Z" fill="#AF9DC4"/>
<path d="M73.1366 19.0761H68.3002C68.1203 19.0761 68.0304 18.9869 68.0304 18.8085V17.8C68.0304 17.6217 68.1203 17.5325 68.3002 17.5325H69.8777V5.84241H65.9547V8.02401C65.9547 8.2161 65.8578 8.31214 65.6641 8.31214H64.5017C64.3079 8.31214 64.2111 8.2161 64.2111 8.02401V4.56638C64.2111 4.38801 64.3079 4.29883 64.5017 4.29883H77.0181C77.2119 4.29883 77.3087 4.38801 77.3087 4.56638V8.02401C77.3087 8.2161 77.2119 8.31214 77.0181 8.31214H75.835C75.6551 8.31214 75.5652 8.2161 75.5652 8.02401V5.84241H71.6836V17.5325H73.1366C73.3303 17.5325 73.4272 17.6217 73.4272 17.8V18.8085C73.4272 18.9869 73.3303 19.0761 73.1366 19.0761Z" fill="#AF9DC4"/>
<path d="M93.4357 11.7492C93.4357 13.9994 92.7507 15.8311 91.3808 17.2443C90.0247 18.6438 88.3087 19.3436 86.233 19.3436C84.1712 19.3436 82.4483 18.637 81.0645 17.2238C79.6807 15.7968 78.9888 13.9651 78.9888 11.7286C78.9888 9.4784 79.7015 7.68099 81.1268 6.33636C82.5521 4.978 84.2542 4.29883 86.233 4.29883C88.2119 4.29883 89.907 4.978 91.3185 6.33636C92.73 7.68099 93.4357 9.48526 93.4357 11.7492ZM82.5175 16.1124C83.5831 17.1551 84.8216 17.6765 86.233 17.6765C87.6445 17.6765 88.8761 17.1551 89.9278 16.1124C90.9795 15.0559 91.5053 13.6152 91.5053 11.7903C91.5053 9.95177 90.9656 8.51795 89.8863 7.4889C88.8207 6.44612 87.603 5.92473 86.233 5.92473C84.8631 5.92473 83.6384 6.44612 82.559 7.4889C81.4797 8.51795 80.94 9.95177 80.94 11.7903C80.94 13.6152 81.4659 15.0559 82.5175 16.1124Z" fill="#AF9DC4"/>
<path d="M108.114 19.0761H106.309C105.81 19.0761 105.395 18.7468 105.063 18.0882L103.112 14.1572C102.946 13.8142 102.766 13.5603 102.572 13.3957C102.392 13.231 102.136 13.1418 101.804 13.1281H99.1682V17.5325H101.036C101.202 17.5325 101.285 17.6148 101.285 17.7794V18.8291C101.285 18.9937 101.202 19.0761 101.036 19.0761H95.7848C95.6049 19.0761 95.515 18.9937 95.515 18.8291V17.7794C95.515 17.6148 95.6049 17.5325 95.7848 17.5325H97.3624V5.84241H95.7848C95.6049 5.84241 95.515 5.76009 95.515 5.59544V4.5458C95.515 4.38115 95.6049 4.29883 95.7848 4.29883H102.178C103.659 4.29883 104.863 4.68987 105.79 5.47195C106.717 6.24031 107.18 7.33111 107.18 8.74434C107.18 10.8985 106.163 12.2431 104.129 12.7782C104.392 12.984 104.717 13.4437 105.105 14.1572L106.848 17.5325H108.114C108.281 17.5325 108.364 17.6148 108.364 17.7794V18.8291C108.364 18.9937 108.281 19.0761 108.114 19.0761ZM99.1682 11.6669H101.825C104.178 11.6669 105.354 10.7133 105.354 8.80609C105.354 6.8303 104.178 5.84241 101.825 5.84241H99.1682V11.6669Z" fill="#AF9DC4"/>
<path d="M116.094 19.0761H111.112C110.932 19.0761 110.842 18.9937 110.842 18.8291V17.7794C110.842 17.6148 110.932 17.5325 111.112 17.5325H112.689V5.84241H111.112C110.932 5.84241 110.842 5.76009 110.842 5.59544V4.5458C110.842 4.38115 110.932 4.29883 111.112 4.29883H116.094C116.273 4.29883 116.363 4.38115 116.363 4.5458V5.59544C116.363 5.76009 116.273 5.84241 116.094 5.84241H114.495V17.5325H116.094C116.273 17.5325 116.363 17.6148 116.363 17.7794V18.8291C116.363 18.9937 116.273 19.0761 116.094 19.0761Z" fill="#AF9DC4"/>
<path fill-rule="evenodd" clip-rule="evenodd" d="M15.3752 12.7349C15.3752 14.2366 14.1605 15.4539 12.6621 15.4539C11.1636 15.4539 9.94889 14.2366 9.94889 12.7349C9.94889 11.2333 11.1636 10.016 12.6621 10.016C14.1605 10.016 15.3752 11.2333 15.3752 12.7349ZM14.0115 12.7349C14.0115 13.4818 13.4073 14.0872 12.6621 14.0872C11.9168 14.0872 11.3127 13.4818 11.3127 12.7349C11.3127 11.9881 11.9168 11.3827 12.6621 11.3827C13.4073 11.3827 14.0115 11.9881 14.0115 12.7349Z" fill="#AF9DC4"/>
<path fill-rule="evenodd" clip-rule="evenodd" d="M16.5004 8.97865C15.9149 8.78605 15.4044 8.41437 15.0407 7.9159C13.8635 6.30248 11.4604 6.30248 10.2832 7.9159C9.91944 8.41437 9.40895 8.78605 8.82348 8.97865C6.9285 9.60204 6.18589 11.8924 7.35333 13.5129C7.71401 14.0136 7.909 14.615 7.91087 15.2325C7.91691 17.2312 9.86107 18.6467 11.7598 18.0348C12.3464 17.8458 12.9774 17.8458 13.564 18.0348C15.4628 18.6467 17.4069 17.2312 17.413 15.2325C17.4148 14.615 17.6098 14.0136 17.9705 13.5129C19.1379 11.8924 18.3953 9.60204 16.5004 8.97865ZM11.384 8.72254C12.0164 7.8558 13.3074 7.8558 13.9398 8.72254C14.4718 9.45171 15.2186 9.9954 16.075 10.2771C17.093 10.612 17.4919 11.8424 16.8648 12.713C16.3372 13.4453 16.0519 14.325 16.0492 15.2283C16.046 16.302 15.0015 17.0625 13.9815 16.7338C13.1234 16.4572 12.2004 16.4572 11.3423 16.7338C10.3223 17.0625 9.27787 16.302 9.27463 15.2283C9.2719 14.325 8.98667 13.4453 8.45906 12.713C7.83191 11.8424 8.23084 10.612 9.24884 10.2771C10.1053 9.9954 10.852 9.45171 11.384 8.72254Z" fill="#AF9DC4"/>
<path fill-rule="evenodd" clip-rule="evenodd" d="M20.9159 4.96222C24.7564 6.21032 26.257 10.8556 23.8748 14.1223L23.7469 14.2976C23.0083 15.3105 22.6084 16.5316 22.6046 17.7861L22.6037 18.0707C22.5915 22.0844 18.6946 24.932 14.8774 23.7168L14.4575 23.5832C13.2892 23.2112 12.0346 23.2112 10.8663 23.5832L10.4464 23.7168C6.62922 24.932 2.73237 22.0844 2.7201 18.0707L2.71922 17.7861C2.71539 16.5316 2.31553 15.3105 1.57691 14.2976L1.44907 14.1223C-0.933124 10.8556 0.567406 6.21032 4.40796 4.96222L4.7061 4.86533C5.88151 4.48335 6.90851 3.743 7.64364 2.74768L7.8949 2.40749C10.2658 -0.802498 15.0581 -0.802496 17.4289 2.40749L17.6802 2.74768C18.4153 3.743 19.4423 4.48335 20.6177 4.86533L20.9159 4.96222ZM7.76856 4.63432C8.12514 4.31126 8.45081 3.95202 8.73981 3.56073L8.99107 3.22054C10.8168 0.748687 14.5071 0.748688 16.3328 3.22054L16.584 3.56074C16.8729 3.95184 17.1984 4.31094 17.5548 4.63388C16.5255 4.12459 15.2989 3.98956 14.0841 4.38104C13.1594 4.67902 12.1648 4.67902 11.2402 4.38104C10.025 3.98945 8.79805 4.12467 7.76856 4.63432ZM6.49487 5.55917C6.06307 5.80637 5.60491 6.00996 5.1268 6.16533L4.82865 6.26222C1.87123 7.22332 0.715746 10.8005 2.55016 13.316L2.67799 13.4913C2.98498 13.9122 3.24438 14.3624 3.45349 14.8336C3.30579 13.7131 3.5609 12.527 4.29449 11.5086C4.86302 10.7195 5.17037 9.77152 5.17332 8.79818C5.17719 7.51459 5.6882 6.3836 6.49487 5.55917ZM3.94624 16.3953C4.03532 16.8497 4.08155 17.3139 4.08298 17.7819L4.08386 18.0665C4.09331 21.1573 7.09408 23.3501 10.0335 22.4143L10.4534 22.2807C10.7525 22.1854 11.0563 22.11 11.3627 22.0544C10.4219 21.7823 9.55239 21.2077 8.91261 20.3309C8.33932 19.5452 7.53466 18.9593 6.61182 18.6557C5.39484 18.2554 4.47939 17.4189 3.94624 16.3953ZM13.9614 22.0545C14.2677 22.1101 14.5714 22.1855 14.8704 22.2807L15.2903 22.4143C18.2298 23.3501 21.2305 21.1573 21.24 18.0665L21.2409 17.7819C21.2423 17.3143 21.2884 16.8506 21.3774 16.3965C20.8441 17.4195 19.9289 18.2555 18.7124 18.6557C17.7896 18.9593 16.9849 19.5452 16.4116 20.3309C15.7718 21.2078 14.9022 21.7823 13.9614 22.0545ZM21.8709 14.8323C22.0799 14.3616 22.3391 13.9118 22.6458 13.4913L22.7737 13.316C24.6081 10.8005 23.4526 7.22332 20.4952 6.26223L20.197 6.16533C19.7193 6.01007 19.2614 5.80665 18.8299 5.55969C19.6362 6.38408 20.147 7.51486 20.1509 8.79818C20.1539 9.77152 20.4612 10.7195 21.0297 11.5086C21.7631 12.5266 22.0183 13.7122 21.8709 14.8323ZM15.3108 19.5242C14 21.3207 11.3242 21.3207 10.0135 19.5242C9.27187 18.5078 8.23096 17.75 7.03717 17.3572C4.9272 16.6631 4.10035 14.113 5.40023 12.3086C6.13568 11.2877 6.53327 10.0614 6.53708 8.80232C6.5438 6.57688 8.70853 5.00079 10.8227 5.68208C12.0188 6.06754 13.3054 6.06754 14.5016 5.68208C16.6157 5.00079 18.7804 6.57688 18.7872 8.80232C18.791 10.0614 19.1886 11.2877 19.924 12.3086C21.2239 14.113 20.397 16.6631 18.2871 17.3572C17.0933 17.75 16.0524 18.5078 15.3108 19.5242Z" fill="#AF9DC4"/>
</svg>
