<svg width="130" height="22" viewBox="0 0 130 22" fill="none" xmlns="http://www.w3.org/2000/svg">
<path d="M4.86644 10.716C5.31444 10.796 5.69444 11.032 6.00644 11.424C6.31844 11.816 6.47444 12.26 6.47444 12.756C6.47444 13.18 6.36244 13.564 6.13844 13.908C5.92244 14.244 5.60644 14.512 5.19044 14.712C4.77444 14.904 4.29044 15 3.73844 15H0.402441V6.66H3.58244C4.15044 6.66 4.63844 6.756 5.04644 6.948C5.45444 7.14 5.76244 7.4 5.97044 7.728C6.17844 8.048 6.28244 8.408 6.28244 8.808C6.28244 9.288 6.15444 9.688 5.89844 10.008C5.64244 10.328 5.29844 10.564 4.86644 10.716ZM1.77044 10.164H3.46244C3.91044 10.164 4.25844 10.064 4.50644 9.864C4.76244 9.656 4.89044 9.36 4.89044 8.976C4.89044 8.6 4.76244 8.308 4.50644 8.1C4.25844 7.884 3.91044 7.776 3.46244 7.776H1.77044V10.164ZM3.61844 13.884C4.08244 13.884 4.44644 13.772 4.71044 13.548C4.97444 13.324 5.10644 13.012 5.10644 12.612C5.10644 12.204 4.96644 11.88 4.68644 11.64C4.40644 11.4 4.03444 11.28 3.57044 11.28H1.77044V13.884H3.61844ZM13.913 8.388L9.85704 18.108H8.44104L9.78504 14.892L7.18104 8.388H8.70504L10.565 13.428L12.497 8.388H13.913Z" fill="#AAADE0"/>
<path d="M55.363 17.8377H54.2952C54.13 17.8377 54.0474 17.7614 54.0474 17.6089V13.1473C54.0474 12.9821 54.13 12.8994 54.2952 12.8994H55.4964C55.649 12.8994 55.7252 12.9821 55.7252 13.1473V13.5477C55.7252 13.7892 55.8714 14.1134 56.1638 14.5201C56.4561 14.9142 56.7485 15.2383 57.0408 15.4925C57.3332 15.7467 57.7209 15.9692 58.2039 16.1599C58.6996 16.3378 59.2335 16.4268 59.8055 16.4268C60.7843 16.4268 61.5469 16.2234 62.0935 15.8166C62.6528 15.4099 62.9324 14.8442 62.9324 14.1197C62.9324 13.7002 62.7735 13.3443 62.4558 13.052C62.1507 12.7469 61.7503 12.5054 61.2546 12.3274C60.7588 12.1495 60.2059 11.9842 59.5958 11.8317C58.9983 11.6792 58.3946 11.5076 57.7844 11.3169C57.187 11.1135 56.6404 10.8784 56.1447 10.6114C55.649 10.3318 55.2422 9.95047 54.9244 9.46745C54.6194 8.97171 54.4668 8.39336 54.4668 7.73238C54.4668 6.66465 54.8672 5.78123 55.668 5.08211C56.4815 4.383 57.5683 4.03345 58.9284 4.03345C60.6444 4.03345 61.9028 4.53554 62.7036 5.53971L62.6655 4.35758C62.6655 4.20505 62.7481 4.12878 62.9134 4.12878H63.9811C64.1336 4.12878 64.2099 4.20505 64.2099 4.35758V8.51411C64.2099 8.66665 64.1336 8.74291 63.9811 8.74291H62.7799C62.6274 8.74291 62.5511 8.66665 62.5511 8.51411V7.98025C62.5511 7.45909 62.2587 6.93158 61.674 6.39771C61.0893 5.86385 60.2313 5.59691 59.1 5.59691C58.2611 5.59691 57.5811 5.80029 57.0599 6.20705C56.5515 6.60109 56.2972 7.10954 56.2972 7.73238C56.2972 8.17727 56.4561 8.5586 56.7739 8.87638C57.0917 9.19416 57.5048 9.44838 58.0132 9.63905C58.5217 9.82971 59.081 10.0077 59.6911 10.1729C60.3012 10.3254 60.9114 10.497 61.5215 10.6877C62.1316 10.8784 62.6909 11.1072 63.1994 11.3741C63.7078 11.641 64.1209 12.0097 64.4387 12.48C64.7565 12.9376 64.9154 13.4842 64.9154 14.1197C64.9154 15.2383 64.515 16.1598 63.7142 16.8844C62.9134 17.6089 61.7185 17.9712 60.1296 17.9712C58.9602 17.9712 57.9942 17.736 57.2315 17.2657C56.4688 16.7954 55.9159 16.287 55.5727 15.7404L55.5918 17.6089C55.5918 17.7614 55.5155 17.8377 55.363 17.8377Z" fill="#AAADE0"/>
<path d="M81.1488 17.7233H76.8397C76.6872 17.7233 76.6109 17.647 76.6109 17.4945V16.5221C76.6109 16.3696 76.6872 16.2933 76.8397 16.2933H78.1744L76.935 12.9948H71.6154L70.3761 16.2933H71.7108C71.8633 16.2933 71.9396 16.3696 71.9396 16.5221V17.4945C71.9396 17.647 71.8633 17.7233 71.7108 17.7233H67.4208C67.2682 17.7233 67.192 17.647 67.192 17.4945V16.5221C67.192 16.3696 67.2682 16.2933 67.4208 16.2933H68.6982L72.7976 5.46345H71.768C71.6027 5.46345 71.5201 5.38718 71.5201 5.23465V4.26225C71.5201 4.10971 71.6027 4.03345 71.768 4.03345H74.361C74.6661 4.03345 74.8949 4.097 75.0474 4.22411C75.2127 4.35123 75.3525 4.56096 75.4669 4.85331L79.8522 16.2933H81.1488C81.3013 16.2933 81.3776 16.3696 81.3776 16.5221V17.4945C81.3776 17.647 81.3013 17.7233 81.1488 17.7233ZM76.4202 11.6792L74.3038 6.01638H74.2466L72.1112 11.6792H76.4202Z" fill="#AAADE0"/>
<path d="M90.0195 17.7233H85.577C85.4118 17.7233 85.3291 17.6407 85.3291 17.4754V16.5412C85.3291 16.3759 85.4118 16.2933 85.577 16.2933H87.0261V5.46345H83.4225V7.48452C83.4225 7.66247 83.3335 7.75145 83.1555 7.75145H82.0878C81.9098 7.75145 81.8209 7.66247 81.8209 7.48452V4.28131C81.8209 4.11607 81.9098 4.03345 82.0878 4.03345H93.585C93.763 4.03345 93.8519 4.11607 93.8519 4.28131V7.48452C93.8519 7.66247 93.763 7.75145 93.585 7.75145H92.4982C92.333 7.75145 92.2503 7.66247 92.2503 7.48452V5.46345H88.6849V16.2933H90.0195C90.1975 16.2933 90.2865 16.3759 90.2865 16.5412V17.4754C90.2865 17.6407 90.1975 17.7233 90.0195 17.7233Z" fill="#AAADE0"/>
<path d="M108.666 10.9356C108.666 13.0202 108.036 14.7171 106.778 16.0264C105.532 17.3229 103.956 17.9712 102.049 17.9712C100.156 17.9712 98.573 17.3166 97.3019 16.0073C96.0308 14.6854 95.3952 12.9884 95.3952 10.9165C95.3952 8.83189 96.0498 7.16674 97.3591 5.92105C98.6683 4.66265 100.232 4.03345 102.049 4.03345C103.867 4.03345 105.424 4.66265 106.721 5.92105C108.017 7.16674 108.666 8.83825 108.666 10.9356ZM98.6366 14.9777C99.6153 15.9438 100.753 16.4268 102.049 16.4268C103.346 16.4268 104.477 15.9438 105.443 14.9777C106.409 13.999 106.892 12.6643 106.892 10.9737C106.892 9.27043 106.397 7.94211 105.405 6.98878C104.426 6.02274 103.308 5.53971 102.049 5.53971C100.791 5.53971 99.6661 6.02274 98.6747 6.98878C97.6832 7.94211 97.1875 9.27043 97.1875 10.9737C97.1875 12.6643 97.6705 13.999 98.6366 14.9777Z" fill="#AAADE0"/>
<path d="M122.149 17.7233H120.49C120.033 17.7233 119.651 17.4182 119.346 16.8081L117.554 13.1664C117.401 12.8486 117.236 12.6134 117.058 12.4609C116.893 12.3084 116.658 12.2258 116.353 12.213H113.931V16.2933H115.647C115.8 16.2933 115.876 16.3696 115.876 16.5221V17.4945C115.876 17.647 115.8 17.7233 115.647 17.7233H110.823C110.658 17.7233 110.576 17.647 110.576 17.4945V16.5221C110.576 16.3696 110.658 16.2933 110.823 16.2933H112.272V5.46345H110.823C110.658 5.46345 110.576 5.38718 110.576 5.23465V4.26225C110.576 4.10971 110.658 4.03345 110.823 4.03345H116.696C118.056 4.03345 119.162 4.39571 120.014 5.12025C120.865 5.83207 121.291 6.8426 121.291 8.15185C121.291 10.1475 120.357 11.3932 118.488 11.8889C118.73 12.0796 119.028 12.5054 119.384 13.1664L120.986 16.2933H122.149C122.302 16.2933 122.378 16.3696 122.378 16.5221V17.4945C122.378 17.647 122.302 17.7233 122.149 17.7233ZM113.931 10.8593H116.372C118.533 10.8593 119.613 9.97589 119.613 8.20905C119.613 6.37865 118.533 5.46345 116.372 5.46345H113.931V10.8593Z" fill="#AAADE0"/>
<path d="M129.478 17.7233H124.902C124.737 17.7233 124.654 17.647 124.654 17.4945V16.5221C124.654 16.3696 124.737 16.2933 124.902 16.2933H126.351V5.46345H124.902C124.737 5.46345 124.654 5.38718 124.654 5.23465V4.26225C124.654 4.10971 124.737 4.03345 124.902 4.03345H129.478C129.644 4.03345 129.726 4.10971 129.726 4.26225V5.23465C129.726 5.38718 129.644 5.46345 129.478 5.46345H128.01V16.2933H129.478C129.644 16.2933 129.726 16.3696 129.726 16.5221V17.4945C129.726 17.647 129.644 17.7233 129.478 17.7233Z" fill="#AAADE0"/>
<path fill-rule="evenodd" clip-rule="evenodd" d="M37.2866 11.5793C37.2866 13.0862 36.065 14.3078 34.5581 14.3078C33.0512 14.3078 31.8296 13.0862 31.8296 11.5793C31.8296 10.0724 33.0512 8.85083 34.5581 8.85083C36.065 8.85083 37.2866 10.0724 37.2866 11.5793ZM34.5582 13.2657C35.4895 13.2657 36.2446 12.5107 36.2446 11.5793C36.2446 10.6479 35.4895 9.89289 34.5582 9.89289C33.6268 9.89289 32.8717 10.6479 32.8717 11.5793C32.8717 12.5107 33.6268 13.2657 34.5582 13.2657Z" fill="url(#paint0_radial)"/>
<path fill-rule="evenodd" clip-rule="evenodd" d="M40.0151 11.5793C40.0151 14.5931 37.5719 17.0363 34.5581 17.0363C31.5443 17.0363 29.1011 14.5931 29.1011 11.5793C29.1011 8.56552 31.5443 6.12234 34.5581 6.12234C37.5719 6.12234 40.0151 8.56552 40.0151 11.5793ZM34.5581 15.4772C36.7108 15.4772 38.456 13.7321 38.456 11.5793C38.456 9.42661 36.7108 7.68148 34.5581 7.68148C32.4054 7.68148 30.6603 9.42661 30.6603 11.5793C30.6603 13.7321 32.4054 15.4772 34.5581 15.4772Z" fill="url(#paint1_radial)"/>
<path fill-rule="evenodd" clip-rule="evenodd" d="M43.1334 11.5793C43.1334 16.3153 39.2941 20.1546 34.5581 20.1546C29.8221 20.1546 25.9828 16.3153 25.9828 11.5793C25.9828 6.84334 29.8221 3.00406 34.5581 3.00406C39.2941 3.00406 43.1334 6.84334 43.1334 11.5793ZM34.5581 18.2057C38.2177 18.2057 41.1845 15.239 41.1845 11.5793C41.1845 7.9197 38.2177 4.95298 34.5581 4.95298C30.8985 4.95298 27.9318 7.9197 27.9318 11.5793C27.9318 15.239 30.8985 18.2057 34.5581 18.2057Z" fill="url(#paint2_radial)"/>
<path fill-rule="evenodd" clip-rule="evenodd" d="M30.0487 2.35813L30.0489 2.35777C30.074 2.3223 30.0866 2.30452 30.0963 2.29109C32.2865 -0.763696 36.8297 -0.763696 39.02 2.29109C39.0296 2.30456 39.0423 2.32242 39.0675 2.35813L39.0809 2.37697C39.775 3.35326 40.7694 4.07574 41.9125 4.43422L41.9351 4.44127C41.9765 4.45416 41.9972 4.46063 42.013 4.46563C45.5951 5.60472 46.999 9.92552 44.7705 12.9526C44.7607 12.9659 44.7476 12.9835 44.7215 13.0185L44.7077 13.0371C43.9937 13.9989 43.6139 15.1679 43.6261 16.3658L43.6264 16.3889C43.6267 16.4136 43.6269 16.4313 43.6271 16.4451C43.6272 16.4557 43.6273 16.4639 43.6273 16.4711C43.6509 20.2298 39.9754 22.9002 36.4079 21.7163C36.3921 21.7111 36.3714 21.704 36.33 21.69L36.3081 21.6826C35.1727 21.3008 33.9435 21.3008 32.8081 21.6826L32.7862 21.69C32.7448 21.704 32.7241 21.7111 32.7083 21.7163C29.1408 22.9002 25.4653 20.2298 25.4889 16.4711C25.489 16.4545 25.4893 16.4326 25.4898 16.3889L25.4901 16.3658C25.5024 15.1679 25.1225 13.9989 24.4085 13.0371L24.3947 13.0185C24.3686 12.9835 24.3555 12.9659 24.3457 12.9526C22.1172 9.92552 23.5211 5.60473 27.1033 4.46563C27.119 4.46061 27.1399 4.45413 27.1814 4.44118L27.2038 4.43422C28.3468 4.07574 29.3412 3.35326 30.0353 2.37697L30.0487 2.35813ZM34.5581 21.324C39.9399 21.324 44.3027 16.9611 44.3027 11.5793C44.3027 6.19752 39.9399 1.83471 34.5581 1.83471C29.1763 1.83471 24.8135 6.19752 24.8135 11.5793C24.8135 16.9611 29.1763 21.324 34.5581 21.324Z" fill="url(#paint3_radial)"/>
<defs>
<radialGradient id="paint0_radial" cx="0" cy="0" r="1" gradientUnits="userSpaceOnUse" gradientTransform="translate(34.5581 11) rotate(90) scale(11 11.2842)">
<stop stop-color="#999CC7" stop-opacity="0.5"/>
<stop offset="1" stop-color="#999CC7"/>
</radialGradient>
<radialGradient id="paint1_radial" cx="0" cy="0" r="1" gradientUnits="userSpaceOnUse" gradientTransform="translate(34.5581 11) rotate(90) scale(11 11.2842)">
<stop stop-color="#999CC7" stop-opacity="0.5"/>
<stop offset="1" stop-color="#999CC7"/>
</radialGradient>
<radialGradient id="paint2_radial" cx="0" cy="0" r="1" gradientUnits="userSpaceOnUse" gradientTransform="translate(34.5581 11) rotate(90) scale(11 11.2842)">
<stop stop-color="#999CC7" stop-opacity="0.5"/>
<stop offset="1" stop-color="#999CC7"/>
</radialGradient>
<radialGradient id="paint3_radial" cx="0" cy="0" r="1" gradientUnits="userSpaceOnUse" gradientTransform="translate(34.5581 11) rotate(90) scale(11 11.2842)">
<stop stop-color="#999CC7" stop-opacity="0.5"/>
<stop offset="1" stop-color="#999CC7"/>
</radialGradient>
</defs>
</svg>
