<svg width="14" height="16" viewBox="0 0 14 16" fill="none" xmlns="http://www.w3.org/2000/svg">
<path d="M13 6.66669C13 11.3334 7 15.3334 7 15.3334C7 15.3334 1 11.3334 1 6.66669C1 5.07539 1.63214 3.54926 2.75736 2.42405C3.88258 1.29883 5.4087 0.666687 7 0.666687C8.5913 0.666687 10.1174 1.29883 11.2426 2.42405C12.3679 3.54926 13 5.07539 13 6.66669Z" stroke="#6468D3" stroke-width="2" stroke-linecap="round" stroke-linejoin="round"/>
<path d="M7 8.66669C8.10457 8.66669 9 7.77126 9 6.66669C9 5.56212 8.10457 4.66669 7 4.66669C5.89543 4.66669 5 5.56212 5 6.66669C5 7.77126 5.89543 8.66669 7 8.66669Z" stroke="#6468D3" stroke-width="2" stroke-linecap="round" stroke-linejoin="round"/>
</svg>
