<svg width="161" height="42" viewBox="0 0 161 42" fill="none" xmlns="http://www.w3.org/2000/svg">

<path d="M45.6445 41.992C41.8326 41.992 38.3288 41.1064 35.133 39.3352C31.9372 37.5256 29.396 35.0421 27.5093 31.8848C25.6611 28.689 24.7371 25.0889 24.7371 21.0845C24.7371 17.0802 25.6611 13.4993 27.5093 10.342C29.396 7.14625 31.9372 4.66277 35.133 2.89161C38.3288 1.12045 41.8326 0.234863 45.6445 0.234863C49.4948 0.234863 52.9987 1.12045 56.156 2.89161C59.3518 4.66277 61.8737 7.14625 63.7219 10.342C65.5701 13.4993 66.4942 17.0802 66.4942 21.0845C66.4942 25.0889 65.5701 28.689 63.7219 31.8848C61.8737 35.0421 59.3518 37.5256 56.156 39.3352C52.9602 41.1064 49.4563 41.992 45.6445 41.992ZM45.6445 31.4805C48.5323 31.4805 50.804 30.5372 52.4596 28.6505C54.1538 26.7638 55.0009 24.2418 55.0009 21.0845C55.0009 17.8502 54.1538 15.309 52.4596 13.4608C50.804 11.5742 48.5323 10.6308 45.6445 10.6308C42.7182 10.6308 40.4273 11.5742 38.7716 13.4608C37.116 15.309 36.2881 17.8502 36.2881 21.0845C36.2881 24.2803 37.116 26.8216 38.7716 28.7082C40.4273 30.5564 42.7182 31.4805 45.6445 31.4805Z" fill="#66CEFF"/>
<path d="M17.5689 41.992C12.833 41.992 8.94415 40.8754 5.90237 38.6422C2.86059 36.3704 1.22419 33.1361 0.993164 28.9393H13.064C13.1795 30.3639 13.6031 31.4035 14.3346 32.058C15.0662 32.7126 16.0096 33.0399 17.1647 33.0399C18.2043 33.0399 19.0513 32.7896 19.7059 32.2891C20.399 31.75 20.7455 31.0184 20.7455 30.0944C20.7455 28.9008 20.1872 27.9767 19.0706 27.3221C17.954 26.6676 16.1443 25.936 13.6416 25.1274C10.9848 24.2418 8.82864 23.3947 7.17298 22.5862C5.55584 21.7391 4.1312 20.5262 2.89909 18.9476C1.70548 17.3304 1.10867 15.232 1.10867 12.6523C1.10867 10.034 1.76324 7.80081 3.07236 5.95264C4.38148 4.06597 6.19114 2.64134 8.50136 1.67875C10.8116 0.716157 13.4298 0.234863 16.3561 0.234863C21.092 0.234863 24.8654 1.35147 27.6761 3.58467C30.5254 5.77937 32.0463 8.87891 32.2388 12.8833H19.9369C19.8984 11.6512 19.5134 10.7271 18.7818 10.111C18.0887 9.49497 17.1839 9.18694 16.0673 9.18694C15.2202 9.18694 14.5272 9.43721 13.9881 9.93776C13.4491 10.4383 13.1795 11.1506 13.1795 12.0747C13.1795 12.8448 13.4683 13.5186 14.0459 14.0961C14.6619 14.6352 15.4127 15.1165 16.2983 15.54C17.1839 15.9251 18.493 16.4256 20.2257 17.0417C22.8054 17.9272 24.9231 18.8128 26.5788 19.6984C28.2729 20.5455 29.7168 21.7583 30.9104 23.337C32.1425 24.8771 32.7586 26.8408 32.7586 29.228C32.7586 31.6538 32.1425 33.8292 30.9104 35.7544C29.7168 37.6796 27.9649 39.2005 25.6547 40.3171C23.383 41.4337 20.6877 41.992 17.5689 41.992Z" fill="#66ECFF"/>
<path d="M98.8485 41.992H87.2111L71.7143 18.5984V41.992H60.0769V0.132935H71.7143L87.2111 23.8234V0.132935H98.8485V41.992Z" fill="#66ACFF" />
<path d="M120.086 35.1805H105.279L103.028 41.992H90.8269L106.049 0.234863H119.435L134.598 41.992H122.337L120.086 35.1805ZM117.184 26.296L112.683 12.7916L108.241 26.296H117.184Z" fill="#9672FF" />
<path d="M147.721 41.992L139.429 26.5922H138.185V41.992H126.576V0.234863H144.878C148.235 0.234863 151.078 0.827163 153.407 2.01176C155.737 3.15687 157.494 4.75608 158.679 6.80939C159.863 8.8232 160.456 11.0937 160.456 13.6208C160.456 16.4639 159.666 18.9713 158.086 21.143C156.547 23.2753 154.276 24.7955 151.275 25.7037L160.693 41.992H147.721ZM138.185 18.6554H143.931C145.51 18.6554 146.695 18.2802 147.484 17.53C148.274 16.7798 148.669 15.6939 148.669 14.2724C148.669 12.9298 148.254 11.8834 147.425 11.1332C146.635 10.3434 145.471 9.94857 143.931 9.94857H138.185V18.6554Z" fill="#D465FF"/>

</svg>
