<svg width="17" height="16" viewBox="0 0 17 16" fill="none" xmlns="http://www.w3.org/2000/svg">
<path d="M13.3673 0.812476L10.0008 5.7778C9.94621 5.84947 9.92099 5.939 9.93017 6.0284C9.93935 6.1178 9.98225 6.20043 10.0502 6.25967C10.1182 6.31891 10.2063 6.35036 10.2966 6.34771C10.387 6.34505 10.473 6.30848 10.5374 6.24535L13.8502 3.40091C13.8693 3.38351 13.8932 3.37205 13.9187 3.36798C13.9443 3.3639 13.9706 3.36738 13.9942 3.37798C14.0178 3.38858 14.0378 3.40584 14.0516 3.42761C14.0654 3.44939 14.0725 3.47472 14.072 3.50047V12.4409C14.0718 12.468 14.0632 12.4945 14.0474 12.5166C14.0316 12.5388 14.0094 12.5556 13.9837 12.5649C13.9581 12.5742 13.9302 12.5754 13.9037 12.5685C13.8773 12.5616 13.8537 12.5469 13.8359 12.5262L3.81872 0.615143C3.6588 0.423922 3.45873 0.269779 3.23254 0.163521C3.00635 0.0572636 2.75951 0.00146383 2.50933 3.3371e-05H2.16051C1.70555 3.3371e-05 1.26922 0.179655 0.947511 0.499383C0.625802 0.819111 0.445068 1.25276 0.445068 1.70492V14.2951C0.445068 14.7473 0.625802 15.1809 0.947511 15.5007C1.26922 15.8204 1.70555 16 2.16051 16C2.45366 16 2.74191 15.9253 2.99776 15.783C3.2536 15.6408 3.4685 15.4358 3.62195 15.1876L6.98845 10.2222C7.043 10.1506 7.06822 10.061 7.05904 9.97163C7.04986 9.88223 7.00696 9.7996 6.93897 9.74036C6.87098 9.68112 6.78294 9.64967 6.69256 9.65232C6.60218 9.65498 6.51616 9.69155 6.45181 9.75468L3.13898 12.5991C3.11988 12.6165 3.09606 12.628 3.07047 12.6321C3.04488 12.6361 3.01865 12.6327 2.99503 12.6221C2.97141 12.6115 2.95145 12.5942 2.93761 12.5724C2.92376 12.5506 2.91666 12.5253 2.91717 12.4996V3.56803C2.91744 3.54088 2.92604 3.51447 2.94182 3.49231C2.9576 3.47015 2.97981 3.45331 3.00547 3.44404C3.03114 3.43476 3.05905 3.43349 3.08546 3.4404C3.11188 3.4473 3.13554 3.46206 3.15329 3.48269L13.1705 15.3938C13.3316 15.5833 13.5324 15.7355 13.7589 15.8399C13.9854 15.9443 14.232 15.9984 14.4817 15.9982H14.8394C15.0647 15.9982 15.2878 15.9541 15.4959 15.8684C15.704 15.7828 15.8931 15.6572 16.0524 15.4989C16.2117 15.3406 16.3381 15.1526 16.4243 14.9458C16.5105 14.7389 16.5549 14.5172 16.5549 14.2933V1.70492C16.5549 1.48013 16.5102 1.25756 16.4233 1.05001C16.3364 0.84247 16.2091 0.654049 16.0486 0.495596C15.8882 0.337142 15.6978 0.211785 15.4885 0.126736C15.2791 0.0416874 15.0549 -0.00137303 14.8287 3.3371e-05C14.5355 6.83235e-05 14.2473 0.0747641 13.9915 0.216993C13.7356 0.359221 13.5207 0.564237 13.3673 0.812476Z" fill="white"/>
</svg>
