<svg width="15" height="13" viewBox="0 0 15 13" fill="none" xmlns="http://www.w3.org/2000/svg">
<path d="M14.8334 1.00011C14.195 1.45043 13.4882 1.79485 12.7401 2.02011C12.3386 1.55845 11.805 1.23124 11.2114 1.08273C10.6179 0.934219 9.99308 0.971576 9.42147 1.18975C8.84986 1.40792 8.35904 1.79638 8.0154 2.30259C7.67176 2.8088 7.49188 3.40834 7.50008 4.02011V4.68678C6.3285 4.71716 5.1676 4.45732 4.12075 3.93041C3.07391 3.4035 2.17363 2.62587 1.50008 1.66678C1.50008 1.66678 -1.16659 7.66678 4.83341 10.3334C3.46043 11.2654 1.82485 11.7327 0.166748 11.6668C6.16675 15.0001 13.5001 11.6668 13.5001 4.00011C13.4995 3.81441 13.4816 3.62917 13.4467 3.44678C14.1271 2.77577 14.6073 1.92859 14.8334 1.00011Z" fill="white"/>
</svg>
